HIERARCHY
ROOT Hips
{
	OFFSET -3.958830 18.904000 13.208200
	CHANNELS 6 Xposition Yposition Zposition Zrotation Yrotation Xrotation 
	JOINT LHipJoint
	{
		OFFSET 0.000000 0.000000 0.000000
		CHANNELS 3 Zrotation Yrotation Xrotation
		JOINT LeftUpLeg
		{
			OFFSET 1.800000 -1.400000 0.085000
			CHANNELS 3 Zrotation Yrotation Xrotation
			JOINT LeftLeg
			{
				OFFSET 2.215000 -6.000000 0.000000
				CHANNELS 3 Zrotation Yrotation Xrotation
				JOINT LeftFoot
				{
					OFFSET 2.500000 -6.900000 0.000000
					CHANNELS 3 Zrotation Yrotation Xrotation
					JOINT LeftToeBase
					{
						OFFSET 0.200000 -0.500000 1.950000
						CHANNELS 3 Zrotation Yrotation Xrotation
						End Site
						{
							OFFSET 0.000000 0.000000 0.000000
						}
					}
				}
			}
		}
	}
	JOINT RHipJoint
	{
		OFFSET 0.000000 0.000000 0.000000
		CHANNELS 3 Zrotation Yrotation Xrotation
		JOINT RightUpLeg
		{
			OFFSET -1.800000 -1.400000 0.085000
			CHANNELS 3 Zrotation Yrotation Xrotation
			JOINT RightLeg
			{
				OFFSET -2.215000 -6.000000 0.000000
				CHANNELS 3 Zrotation Yrotation Xrotation
				JOINT RightFoot
				{
					OFFSET -2.500000 -6.900000 0.000000
					CHANNELS 3 Zrotation Yrotation Xrotation
					JOINT RightToeBase
					{
						OFFSET -0.200000 -0.500000 1.950000
						CHANNELS 3 Zrotation Yrotation Xrotation
						End Site
						{
							OFFSET 0.000000 0.000000 0.000000
						}
					}
				}
			}
		}
	}
	JOINT LowerBack
	{
		OFFSET 0.000000 0.000000 0.000000
		CHANNELS 3 Zrotation Yrotation Xrotation
		JOINT Spine
		{
			OFFSET -0.087000 1.940000 -0.288900
			CHANNELS 3 Zrotation Yrotation Xrotation
			JOINT Spine1
			{
				OFFSET 0.000000 1.950000 0.060000
				CHANNELS 3 Zrotation Yrotation Xrotation
				JOINT Neck
				{
					OFFSET 0.000000 0.000000 0.000000
					CHANNELS 3 Zrotation Yrotation Xrotation
					JOINT Neck1
					{
						OFFSET 0.000000 1.600000 0.340000
						CHANNELS 3 Zrotation Yrotation Xrotation
						JOINT Head
						{
							OFFSET 0.000000 1.667000 -0.240000
							CHANNELS 3 Zrotation Yrotation Xrotation
							End Site
							{
								OFFSET 0.000000 0.000000 0.000000
							}
						}
					}
				}
				JOINT LeftShoulder
				{
					OFFSET 0.000000 0.000000 0.000000
					CHANNELS 3 Zrotation Yrotation Xrotation
					JOINT LeftArm
					{
						OFFSET 2.700000 1.550000 -0.730000
						CHANNELS 3 Zrotation Yrotation Xrotation
						JOINT LeftForeArm
						{
							OFFSET 5.450000 0.000000 0.000000
							CHANNELS 3 Zrotation Yrotation Xrotation
							JOINT LeftHand
							{
								OFFSET 3.450000 0.000000 0.000000
								CHANNELS 3 Zrotation Yrotation Xrotation
								JOINT LeftHandIndex1
								{
									OFFSET 0.750000 0.000000 0.000000
									CHANNELS 3 Zrotation Yrotation Xrotation
									End Site
									{
										OFFSET 0.000000 0.000000 0.000000
									}
								}
							}
						}
					}
				}
				JOINT RightShoulder
				{
					OFFSET 0.000000 0.000000 0.000000
					CHANNELS 3 Zrotation Yrotation Xrotation
					JOINT RightArm
					{
						OFFSET -2.700000 1.550000 -0.730000
						CHANNELS 3 Zrotation Yrotation Xrotation
						JOINT RightForeArm
						{
							OFFSET -5.450000 0.000000 0.000000
							CHANNELS 3 Zrotation Yrotation Xrotation
							JOINT RightHand
							{
								OFFSET -3.450000 0.000000 0.000000
								CHANNELS 3 Zrotation Yrotation Xrotation
								JOINT RightHandIndex1
								{
									OFFSET -0.750000 0.000000 0.000000
									CHANNELS 3 Zrotation Yrotation Xrotation
									End Site
									{
										OFFSET 0.000000 0.000000 0.000000
									}
								}
							}
						}
					}
				}
			}
		}
	}
}
MOTION
Frames: 11
Frame Time: 0.016667
-0.014380 16.409180 -3.751530 1.878433 52.215922 -5.990783 -15.593820 15.632813 2.991241 10.338029 0.871017 -1.472735 1.191637 5.646490 17.768898 -0.372902 5.525064 3.016519 -0.728000 -1.220900 -0.686310 17.315435 -11.246144 2.510282 -14.619715 -0.423858 -23.981448 -0.591298 -5.679979 23.348404 0.240028 -3.318772 3.349105 -0.591000 0.801870 0.143980 -3.444450 -5.068202 -7.500550 25.369695 -20.168089 25.708875 -29.396320 -8.461223 -12.529335 19.217405 -12.088803 -14.729923 -20.991787 -15.162837 26.470586 -6.013410 -20.931110 -10.821190 -12.453868 16.390124 -1.428091 -52.970255 21.581979 -7.906111 -67.648954 -58.209102 33.034223 -3.718237 3.125890 0.647720 0.219860 -0.380570 0.038970 -27.229576 7.750990 9.448397 -0.946172 -6.636182 -17.951268 -72.811486 33.555098 -15.099634 3.674050 -1.623023 -0.637200 0.512990 0.767760 -0.037660 
-0.022420 16.383640 -3.746630 2.190339 50.340704 -7.587457 -15.561606 15.423864 2.923940 10.230582 1.240121 1.188120 1.099129 5.903076 18.089660 -0.370596 5.875136 2.927064 -0.752300 -1.279660 -0.738250 17.410857 -11.311644 2.446810 -14.782396 -0.525358 -23.987997 -0.323808 -6.144469 25.413811 0.222290 -3.677868 3.207913 -0.581800 0.905110 0.171270 -3.599153 -4.840200 -7.363019 24.710923 -22.840777 27.931149 -31.240062 -11.447003 -10.848207 20.362519 -13.428522 -15.433079 -22.635642 -14.087277 23.985418 -3.879740 -20.872960 -10.418630 -11.060356 18.932157 -3.090251 -53.253041 21.164147 -8.195235 -71.209588 -59.207269 35.334751 -3.792277 3.149643 0.656470 0.271890 -0.433430 0.056130 -30.314434 8.018677 10.469249 -1.872348 -2.366027 -19.777052 -57.676967 23.502564 -7.413673 3.859725 -1.727296 -0.686560 0.554600 0.829560 -0.032840 
-0.034810 16.366580 -3.742250 2.644794 48.749614 -9.652416 -15.483747 15.010634 2.816884 10.093108 1.646735 4.369756 1.266890 6.107963 18.515572 -0.288508 6.086948 2.876252 -0.751160 -1.244430 -0.778150 17.562031 -11.620597 2.296446 -14.293288 -0.872996 -23.188460 -1.912869 -5.896348 26.719751 0.190302 -3.864378 3.162256 -0.563560 0.930310 0.145650 -4.028943 -3.969322 -7.215344 24.392137 -26.142038 29.830299 -33.687227 -14.918014 -7.583796 21.163579 -14.735075 -16.398653 -24.279600 -13.675162 22.011869 -1.435950 -21.167980 -11.754840 -9.841950 19.887161 -3.642734 -54.977865 20.546184 -10.346734 -73.146789 -61.966585 37.115583 -3.745698 3.158224 0.649690 0.269290 -0.435610 0.073320 -32.865373 9.189851 11.688275 -2.975991 0.367027 -20.215932 -47.975813 9.953303 -2.837642 3.782262 -1.652221 -0.687720 0.592020 0.827500 -0.007230 
-0.043130 16.343330 -3.729530 2.350878 47.931878 -11.628642 -15.407077 14.587066 2.703652 10.681671 1.765539 6.633698 1.209630 6.311569 18.869407 -0.237569 6.199437 2.823888 -0.702670 -1.156600 -0.737790 17.685381 -11.942641 2.219216 -14.179827 -1.327351 -22.573029 -2.212899 -6.083035 27.814466 0.122652 -4.064518 3.074851 -0.524040 0.864680 0.110540 -4.463531 -2.923387 -7.194173 25.343979 -27.660450 30.515543 -36.057456 -16.038685 -4.559904 21.190008 -15.018220 -16.591138 -24.202641 -14.845291 21.735461 0.018370 -22.081570 -14.542700 -10.099086 18.271535 -3.266651 -53.882823 18.829462 -10.692419 -78.953262 -64.355626 41.889443 -3.694620 3.149222 0.666440 0.214170 -0.390320 0.064920 -32.993165 9.923974 12.436375 -4.170818 -0.686965 -17.656574 -42.822531 -0.443853 -0.602492 3.874777 -1.476622 -0.668300 0.606930 0.788770 -0.008700 
-0.053240 16.302850 -3.705290 2.866338 47.079237 -12.042633 -15.341921 14.240711 2.623509 10.760604 1.854313 7.888098 0.850779 6.505662 19.354788 -0.219750 6.305574 2.780531 -0.639720 -1.089540 -0.687770 17.777039 -12.160023 2.261143 -15.300212 -1.605345 -23.492864 -1.456672 -6.754746 29.611607 0.032235 -4.419755 2.922116 -0.494850 0.839910 0.144710 -4.766492 -1.969034 -7.291169 25.600984 -26.159116 30.366822 -37.426413 -14.494741 -1.856700 20.296952 -13.602818 -16.623631 -21.671919 -15.144695 23.199895 0.209430 -21.801030 -14.893730 -11.831227 13.699091 -1.792353 -50.294624 17.029824 -10.212409 -90.455828 -66.814025 51.407123 -3.799102 3.044860 0.691640 0.212020 -0.345360 0.081300 -29.925079 10.677940 13.228900 -6.441217 -4.733098 -13.482720 -37.040975 -7.785802 0.892350 4.008899 -1.171120 -0.641630 0.599520 0.756940 -0.017960 
-0.056860 16.273960 -3.671510 2.250221 46.476252 -12.495331 -15.330215 14.314015 2.656465 12.172006 1.673319 7.889113 -0.022542 6.835618 19.309220 -0.199306 6.361374 2.732412 -0.573360 -1.021170 -0.609860 17.758557 -12.139891 2.307540 -14.969619 -1.613178 -24.293765 -1.601808 -6.903463 30.634452 -0.037461 -4.467799 2.877940 -0.481750 0.752580 0.160650 -4.740887 -1.812104 -7.350351 26.588955 -23.964246 30.164940 -37.070141 -12.249889 -1.553846 19.234705 -11.484243 -16.288739 -19.313989 -15.316686 25.876055 0.190700 -21.384400 -16.399440 -14.301867 8.780522 0.015367 -48.084744 15.829322 -10.114752 -94.021688 -68.927565 55.769378 -3.811250 2.931474 0.738130 0.160080 -0.275070 0.077660 -25.667823 11.411596 13.519175 -9.330904 -8.916971 -12.142179 -37.712546 -10.737364 1.737662 4.042238 -1.045653 -0.604450 0.564070 0.708330 -0.042650 
-0.046400 16.245710 -3.619490 1.126170 46.631859 -11.597666 -15.287294 14.211194 2.538090 13.962529 1.259243 6.280801 -0.806751 6.954217 18.984034 -0.213024 6.202442 2.764788 -0.447210 -0.883360 -0.494310 17.823310 -12.110347 2.367274 -14.237873 -1.530818 -26.294336 -2.223754 -6.838420 30.980312 -0.103833 -4.380096 2.883476 -0.440230 0.640330 0.158910 -4.948605 -1.338793 -7.346909 30.797017 -22.238061 26.184084 -38.506744 -10.228392 -0.769502 17.650904 -9.648991 -15.420136 -17.062542 -15.889017 27.324981 0.280460 -20.970390 -18.510100 -15.835315 4.956803 1.728177 -45.605354 14.893236 -9.729850 -86.700623 -71.405458 51.923017 -3.565804 3.104815 0.771060 0.085350 -0.195800 0.108690 -21.444666 11.567064 12.992455 -12.441660 -11.647767 -11.585346 -41.645079 -12.733440 2.633472 4.011361 -1.099446 -0.547960 0.520040 0.594310 -0.056320 
-0.051510 16.218620 -3.582330 0.662194 46.093616 -11.470447 -15.273390 14.249610 2.535508 14.901134 1.107691 5.978040 -1.175783 7.106092 18.952344 -0.194110 6.207434 2.753848 -0.411210 -0.844440 -0.458980 17.839248 -12.019631 2.404407 -13.804206 -1.456216 -27.417678 -2.541809 -6.828587 31.564737 -0.127951 -4.373201 2.878077 -0.434780 0.593160 0.143050 -4.942479 -1.344511 -7.357032 31.926484 -21.474290 25.698238 -38.467899 -9.376434 -1.292198 17.110932 -9.135518 -15.239413 -16.902264 -15.556834 28.278924 0.464470 -20.732230 -19.138490 -16.731555 3.081632 2.644765 -45.070582 14.444791 -9.685867 -84.456004 -73.287249 51.601733 -3.471569 3.148640 0.789600 0.045910 -0.169420 0.117870 -19.421004 12.165790 12.505686 -13.515387 -13.006409 -11.823160 -45.414789 -14.179938 3.462892 3.975713 -1.154713 -0.534120 0.501690 0.551650 -0.061340 
-0.062570 16.197890 -3.539660 0.379943 45.075478 -11.804784 -15.265488 14.306595 2.581758 15.921428 1.025972 6.406226 -1.895140 7.465470 18.987627 -0.154383 6.361180 2.697429 -0.390720 -0.819580 -0.456710 17.848591 -11.920402 2.405400 -12.992947 -1.243110 -27.994675 -3.294341 -6.621416 32.428447 -0.143946 -4.397670 2.877754 -0.425050 0.582450 0.135390 -4.870718 -1.480871 -7.357486 32.125202 -21.316156 26.609368 -38.167425 -9.195751 -2.210064 17.090007 -9.510954 -15.243489 -17.965740 -14.726016 28.397021 0.870700 -20.426780 -19.768740 -17.465226 2.434680 2.831737 -44.525678 13.866447 -9.422042 -84.183564 -74.975418 52.603002 -3.479378 3.112227 0.794360 0.031450 -0.165300 0.127560 -18.384541 12.766672 12.161718 -14.759495 -13.188136 -11.984577 -46.663824 -16.683440 4.373463 3.983474 -1.140143 -0.527170 0.500570 0.538870 -0.058820 
-0.085450 16.179820 -3.506960 -0.128791 44.185691 -13.193768 -15.249218 14.295926 2.603907 17.057906 0.882583 7.422973 -2.269371 7.805714 19.439470 -0.116579 6.593489 2.607506 -0.367800 -0.784840 -0.454740 17.869255 -11.926445 2.351100 -12.084835 -1.320566 -27.754775 -3.886572 -6.501107 33.155935 -0.174314 -4.462473 2.844561 -0.400780 0.582680 0.146380 -4.883338 -1.405166 -7.331405 31.800575 -21.843167 28.044952 -38.194769 -9.451585 -1.373779 17.397250 -9.836803 -15.281388 -18.729923 -13.982877 28.252849 1.389180 -20.170800 -20.524650 -17.661874 1.475348 2.745300 -43.808277 11.374083 -9.384850 -94.195400 -77.012920 62.512966 -3.920191 2.340787 0.794490 0.027970 -0.154350 0.131110 -18.615471 13.343914 12.165295 -14.362776 -12.839215 -12.579163 -45.493058 -20.429984 5.227505 4.144963 -1.063453 -0.516670 0.507920 0.541880 -0.052580 
-0.116940 16.170390 -3.476080 -0.262497 43.262580 -14.885833 -15.222220 14.216026 2.631046 17.864382 0.780163 9.124005 -2.577332 8.128601 19.843576 -0.095967 6.838989 2.512111 -0.328300 -0.725030 -0.443850 17.903565 -12.044357 2.233907 -11.302519 -1.703297 -26.827385 -4.841186 -6.234558 33.521788 -0.208482 -4.502216 2.829897 -0.353450 0.578040 0.142970 -4.966507 -1.094043 -7.304459 30.678175 -22.459178 29.995671 -38.119927 -9.984341 0.401478 17.510424 -9.982412 -15.154937 -19.005705 -13.309724 28.082604 2.502160 -19.721750 -22.320410 -17.461709 -0.220398 2.606645 -42.636022 8.728626 -12.446103 -111.945877 -76.422818 83.480319 -3.931899 1.755033 0.813150 0.019980 -0.139190 0.135270 -19.044804 13.881711 12.270308 -14.571206 -12.445628 -12.960883 -41.236075 -24.807291 5.901534 4.429161 -0.824155 -0.520430 0.536460 0.541250 -0.057530 
